<?xml version="1.0" standalone="no"?>
<!DOCTYPE svg PUBLIC "-//W3C//DTD SVG 20010904//EN"
 "http://www.w3.org/TR/2001/REC-SVG-20010904/DTD/svg10.dtd">
<svg version="1.0" xmlns="http://www.w3.org/2000/svg"
 width="591.000000pt" height="591.000000pt" viewBox="0 0 591.000000 591.000000"
 preserveAspectRatio="xMidYMid meet">
<metadata>
Created by potrace 1.11, written by Peter Selinger 2001-2013
</metadata>
<g transform="translate(0.000000,591.000000) scale(0.100000,-0.100000)"
fill="#000000" stroke="none">
<path d="M2865 5456 c-41 -18 -60 -39 -535 -604 -237 -281 -428 -517 -445
-549 l-30 -57 -5 -523 -5 -523 -90 -51 c-411 -235 -687 -610 -785 -1066 -25
-118 -41 -323 -25 -329 6 -3 204 -3 441 -2 l431 3 -5 -111 c-4 -96 -2 -122 18
-185 43 -145 146 -271 273 -334 62 -31 71 -40 99 -94 63 -123 184 -250 310
-327 72 -44 191 -88 285 -104 88 -16 274 -8 358 15 209 58 412 219 509 405 34
65 41 72 109 107 128 67 223 183 273 333 13 40 18 82 17 155 -1 55 -3 108 -5
118 -3 16 21 17 435 17 382 0 438 2 443 15 9 23 -14 237 -36 334 -73 329 -251
631 -501 851 -85 75 -240 181 -321 221 l-47 23 -3 515 -3 516 -31 65 c-45 93
-914 1125 -975 1158 -47 25 -108 28 -154 8z m434 -916 l341 -405 0 -997 0
-998 -705 0 -705 0 0 996 0 995 353 419 c272 324 355 416 364 407 6 -7 165
-194 352 -417z m-1389 -2075 l0 -325 -260 0 c-176 0 -260 3 -260 11 0 19 60
152 97 213 58 97 158 220 229 283 56 50 181 143 191 143 2 0 3 -146 3 -325z
m2182 237 c87 -70 167 -153 232 -242 51 -69 156 -273 156 -302 0 -17 -18 -18
-260 -18 l-260 0 0 325 0 326 29 -16 c16 -8 62 -41 103 -73z m-475 -968 c14
-8 34 -36 45 -61 27 -61 17 -114 -31 -165 -44 -47 -89 -60 -174 -48 -34 5 -63
8 -64 6 -2 -1 -10 -42 -18 -90 -20 -111 -53 -181 -120 -254 -186 -201 -501
-185 -667 33 -47 62 -76 137 -92 235 -11 71 -13 75 -36 73 -152 -12 -192 0
-238 68 -20 28 -23 44 -20 92 4 49 9 62 38 92 18 19 42 35 54 37 12 2 309 2
660 1 566 -2 642 -5 663 -19z"/>
<path d="M2910 3992 c-145 -19 -243 -129 -243 -272 1 -77 19 -125 71 -182 172
-191 495 -47 469 208 -10 93 -67 177 -149 220 -34 17 -110 31 -148 26z"/>
</g>
</svg>
